<?xml version="1.0" encoding="iso-8859-1"?>
<!-- Generator: Adobe Illustrator 16.0.0, SVG Export Plug-In . SVG Version: 6.00 Build 0)  -->
<!DOCTYPE svg PUBLIC "-//W3C//DTD SVG 1.1//EN" "http://www.w3.org/Graphics/SVG/1.1/DTD/svg11.dtd">
<svg version="1.1" id="Capa_1" xmlns="http://www.w3.org/2000/svg" xmlns:xlink="http://www.w3.org/1999/xlink" x="0px" y="0px"
	 width="23.305px" height="23.305px" viewBox="0 0 23.305 23.305" style="enable-background:new 0 0 23.305 23.305;"
	 xml:space="preserve">
<g>
	<g>
		<path d="M21.762,9.365h-2.078v-6.2c0-1.174-0.963-2.135-2.136-2.135H2.135C0.961,1.03,0,1.991,0,3.165v9.012
			c0,1.176,0.961,2.135,2.135,2.135h1.97v6.207c0,0.968,0.791,1.756,1.756,1.756h3.906c0.966,0,1.757-0.789,1.757-1.756v-6.208
			h1.412v3.106c0,0.848,0.694,1.543,1.545,1.543h7.281c0.85,0,1.543-0.693,1.543-1.543v-6.51
			C23.305,10.058,22.609,9.365,21.762,9.365z M21.309,10.212c0.265,0,0.479,0.213,0.479,0.477c0,0.263-0.214,0.477-0.479,0.477
			c-0.264,0-0.477-0.213-0.477-0.477C20.832,10.426,21.045,10.212,21.309,10.212z M22.137,17.636h-8.031v-5.748h8.031V17.636z
			 M19.941,10.213c0.265,0,0.478,0.213,0.478,0.476c0,0.263-0.213,0.476-0.478,0.476c-0.262,0-0.476-0.213-0.476-0.476
			C19.466,10.426,19.68,10.213,19.941,10.213z M17.068,2.119c0.346,0,0.625,0.279,0.625,0.624c0,0.345-0.279,0.624-0.625,0.624
			c-0.344,0-0.623-0.279-0.623-0.624C16.445,2.398,16.725,2.119,17.068,2.119z M15.281,2.12c0.344,0,0.621,0.279,0.621,0.623
			c0,0.344-0.277,0.623-0.621,0.623c-0.346,0-0.623-0.279-0.623-0.623C14.658,2.399,14.938,2.12,15.281,2.12z M7.789,10.987
			c0-0.263,0.213-0.476,0.476-0.476c0.263,0,0.477,0.213,0.477,0.476c0,0.263-0.214,0.477-0.477,0.477
			C8.002,11.464,7.789,11.25,7.789,10.987z M9.154,10.987c0-0.264,0.214-0.477,0.478-0.477c0.264,0,0.477,0.213,0.477,0.477
			c0,0.263-0.213,0.477-0.477,0.477C9.368,11.464,9.154,11.25,9.154,10.987z M10.195,20.767H5.437v-8.418h4.759L10.195,20.767
			L10.195,20.767z M11.524,12.479v-1.139c0-0.964-0.791-1.755-1.756-1.755H5.861c-0.965,0-1.756,0.791-1.756,1.755v1.139H1.617
			V4.421h16.447v4.944H14.48c-0.851,0-1.545,0.693-1.545,1.542v1.572H11.524z"/>
	</g>
</g>
<g>
</g>
<g>
</g>
<g>
</g>
<g>
</g>
<g>
</g>
<g>
</g>
<g>
</g>
<g>
</g>
<g>
</g>
<g>
</g>
<g>
</g>
<g>
</g>
<g>
</g>
<g>
</g>
<g>
</g>
</svg>
