<?xml version="1.0" encoding="iso-8859-1"?>
<!-- Generator: Adobe Illustrator 18.1.1, SVG Export Plug-In . SVG Version: 6.00 Build 0)  -->
<svg version="1.1" id="Capa_1" xmlns="http://www.w3.org/2000/svg" xmlns:xlink="http://www.w3.org/1999/xlink" x="0px" y="0px"
	 viewBox="0 0 23.304 23.304" style="enable-background:new 0 0 23.304 23.304;" xml:space="preserve">
<g>
	<g>
		<path style="fill:#010002;" d="M23.303,19.995l-6.994-6.996l-0.907,0.551l-1.369-1.327c2.155-3.022,1.887-7.245-0.824-9.956
			c-3.025-3.023-7.922-3.022-10.943,0c-3.021,3.021-3.021,7.918,0,10.942c2.715,2.715,6.942,2.98,9.965,0.819l1.285,1.237
			l-0.519,1.045l6.997,6.994c0,0,1.521,0.019,2.438-1.029C23.349,21.227,23.303,19.995,23.303,19.995z M3.523,11.95
			C1.195,9.622,1.196,5.851,3.525,3.523c2.319-2.327,6.098-2.329,8.429-0.001c2.322,2.329,2.323,6.099-0.005,8.429
			C9.624,14.275,5.851,14.277,3.523,11.95z"/>
		<path style="fill:#010002;" d="M7.788,2.89C7.787,2.89,7.787,2.89,7.788,2.89C5.889,2.9,4.35,4.441,4.35,6.343
			c0,1.692,1.171,2.689,2.147,4.01c0.853,1.151,1.155,2.221,1.254,2.537h0.072c0.099-0.316,0.401-1.386,1.255-2.537
			c0.976-1.32,2.146-2.317,2.146-4.01C11.225,4.442,9.688,2.9,7.788,2.89z M7.789,7.144C7.137,7.134,6.61,6.609,6.61,5.954
			c0-0.654,0.526-1.182,1.179-1.19C8.439,4.773,8.966,5.3,8.966,5.953C8.966,6.609,8.44,7.134,7.789,7.144z"/>
	</g>
</g>
<g>
</g>
<g>
</g>
<g>
</g>
<g>
</g>
<g>
</g>
<g>
</g>
<g>
</g>
<g>
</g>
<g>
</g>
<g>
</g>
<g>
</g>
<g>
</g>
<g>
</g>
<g>
</g>
<g>
</g>
</svg>
