<?xml version="1.0" encoding="iso-8859-1"?>
<!-- Generator: Adobe Illustrator 16.0.0, SVG Export Plug-In . SVG Version: 6.00 Build 0)  -->
<!DOCTYPE svg PUBLIC "-//W3C//DTD SVG 1.1//EN" "http://www.w3.org/Graphics/SVG/1.1/DTD/svg11.dtd">
<svg version="1.1" id="Capa_1" xmlns="http://www.w3.org/2000/svg" xmlns:xlink="http://www.w3.org/1999/xlink" x="0px" y="0px"
	 width="566.965px" height="566.965px" viewBox="0 0 566.965 566.965" style="enable-background:new 0 0 566.965 566.965;"
	 xml:space="preserve">
<g>
	<g>
		<g>
			<path d="M544.374,355.976c-6.746-42.076-43.057-73.026-85.672-73.026c-42.618,0-78.926,30.95-85.674,73.026l-22.311,139.061
				c-1.034,6.451,0.812,13.039,5.051,18.019c4.241,4.965,10.447,7.836,16.991,7.836h171.883c6.542,0,12.75-2.871,16.99-7.836
				c4.239-4.978,6.084-11.566,5.052-18.019L544.374,355.976z"/>
			<circle cx="409.795" cy="146.729" r="89.464"/>
			<path d="M127.169,351.681c5.684,15.432,20.28,24.983,35.814,24.983c4.388,0,8.841-0.766,13.197-2.366
				c19.784-7.287,29.912-29.234,22.617-49.011L104.234,68.662c-7.287-19.794-29.244-29.87-49.009-22.62
				C35.439,53.33,25.31,75.277,32.608,95.053L127.169,351.681z"/>
			<path d="M174.157,466.019H78.915c-11.938,0-21.659-9.721-21.659-21.66V234.601c0-15.814-12.815-28.627-28.629-28.627
				C12.813,205.972,0,218.786,0,234.601v209.756c0,43.512,35.402,78.916,78.915,78.916h95.244c15.814,0,28.629-12.816,28.629-28.629
				C202.786,478.831,189.971,466.019,174.157,466.019z"/>
			<path d="M270.826,478.196c-20.522,0-37.819,13.176-44.229,31.508c-0.896,2.572-0.496,5.414,1.079,7.644
				c1.575,2.217,4.137,3.539,6.858,3.539h72.579c2.722,0,5.275-1.322,6.858-3.539c1.574-2.229,1.976-5.07,1.081-7.644
				C308.644,491.372,291.347,478.196,270.826,478.196z"/>
		</g>
	</g>
</g>
<g>
</g>
<g>
</g>
<g>
</g>
<g>
</g>
<g>
</g>
<g>
</g>
<g>
</g>
<g>
</g>
<g>
</g>
<g>
</g>
<g>
</g>
<g>
</g>
<g>
</g>
<g>
</g>
<g>
</g>
</svg>
