<?xml version="1.0" encoding="iso-8859-1"?>
<!-- Generator: Adobe Illustrator 18.1.1, SVG Export Plug-In . SVG Version: 6.00 Build 0)  -->
<svg version="1.1" id="Capa_1" xmlns="http://www.w3.org/2000/svg" xmlns:xlink="http://www.w3.org/1999/xlink" x="0px" y="0px"
	 viewBox="0 0 24.395 24.395" style="enable-background:new 0 0 24.395 24.395;" xml:space="preserve">
<g>
	<g>
		<polygon style="fill:#010002;" points="14.992,7.327 17.786,4.604 13.926,4.043 12.198,0.546 10.472,4.043 6.612,4.604 
			9.406,7.327 8.746,11.171 12.198,9.357 15.651,11.171 		"/>
		<polygon style="fill:#010002;" points="7.312,16.72 5.585,13.221 3.86,16.72 0,17.281 2.791,20.003 2.133,23.849 5.586,22.036 
			9.038,23.849 8.379,20.003 11.174,17.281 		"/>
		<polygon style="fill:#010002;" points="24.395,17.281 20.535,16.72 18.808,13.221 17.079,16.72 13.221,17.281 16.015,20.003 
			15.353,23.849 18.807,22.036 22.261,23.849 21.6,20.003 		"/>
	</g>
</g>
<g>
</g>
<g>
</g>
<g>
</g>
<g>
</g>
<g>
</g>
<g>
</g>
<g>
</g>
<g>
</g>
<g>
</g>
<g>
</g>
<g>
</g>
<g>
</g>
<g>
</g>
<g>
</g>
<g>
</g>
</svg>
